<?xml version="1.0" encoding="UTF-8" standalone="no"?>
<!-- Uploaded to: SVG Repo, www.svgrepo.com, Generator: SVG Repo Mixer Tools -->

<svg
   fill="#000000"
   height="800"
   width="800"
   version="1.1"
   id="Capa_1"
   viewBox="0 0 217.211 217.211"
   xml:space="preserve"
   xmlns="http://www.w3.org/2000/svg"
   xmlns:svg="http://www.w3.org/2000/svg"><defs
   id="defs414" />

<path
   d="M 151.449,53.018 H 137.059 22.254 c -2.22,0 -4.173,1.463 -4.798,3.593 L 0.202,115.446 c -0.443,1.512 -0.148,3.144 0.795,4.404 0.944,1.261 2.427,2.003 4.002,2.003 h 115.469 c 2.239,0 4.205,-1.488 4.813,-3.643 l 15.563,-55.192 h 10.604 c 2.761,0 5,-2.238 5,-5 0,-2.762 -2.238,-5 -4.999,-5 z M 37.771,67.562 24.192,109.698 c -0.683,2.119 -2.646,3.468 -4.758,3.468 -0.508,0 -1.025,-0.078 -1.535,-0.242 -2.628,-0.847 -4.072,-3.664 -3.225,-6.292 L 28.253,64.496 c 0.847,-2.629 3.664,-4.074 6.292,-3.226 2.629,0.847 4.073,3.664 3.226,6.292 z m 29.083,0 -13.579,42.136 c -0.683,2.119 -2.646,3.468 -4.758,3.468 -0.508,0 -1.025,-0.078 -1.535,-0.242 -2.628,-0.847 -4.072,-3.664 -3.225,-6.292 L 57.336,64.496 c 0.847,-2.629 3.664,-4.074 6.292,-3.226 2.629,0.847 4.073,3.664 3.226,6.292 z m 29.083,0 -13.579,42.136 c -0.683,2.119 -2.646,3.468 -4.758,3.468 -0.508,0 -1.025,-0.078 -1.535,-0.242 -2.628,-0.847 -4.072,-3.664 -3.225,-6.292 L 86.419,64.496 c 0.846,-2.629 3.664,-4.074 6.292,-3.226 2.629,0.847 4.073,3.664 3.226,6.292 z m 29.084,0 -13.579,42.136 c -0.683,2.119 -2.646,3.468 -4.758,3.468 -0.508,0 -1.025,-0.078 -1.535,-0.242 -2.628,-0.847 -4.072,-3.664 -3.225,-6.292 l 13.579,-42.136 c 0.846,-2.629 3.664,-4.074 6.292,-3.226 2.629,0.847 4.073,3.664 3.226,6.292 z"
   id="path456"
   style="fill:#fc6f58;fill-opacity:1" /><path
   d="m 212.795,105.908 -24.859,-2.925 -8.513,-17.026 c -0.847,-1.693 -2.578,-2.764 -4.472,-2.764 h -23.976 c -2.761,0 -5,2.238 -5,5 v 0.691 18.346 21.957 H 10.272 c -1.756,0 -3.384,0.922 -4.288,2.428 -0.903,1.506 -0.951,3.376 -0.124,4.926 l 5.192,9.733 c 0.389,0.728 0.949,1.325 1.607,1.773 0.697,9.018 8.241,16.146 17.434,16.146 4.896,0 9.323,-2.026 12.503,-5.278 3.18,3.251 7.607,5.278 12.503,5.278 8.894,0 16.243,-6.673 17.345,-15.272 h 78.53 20.522 c 1.101,8.6 8.45,15.272 17.345,15.272 8.895,0 16.244,-6.673 17.345,-15.272 h 6.024 c 2.761,0 5,-2.238 5,-5 v -33.047 c 0.001,-2.536 -1.896,-4.67 -4.415,-4.966 z m -56.819,-3.678 v -8.346 h 13.507 l 5.023,8.346 z"
   id="path458"
   style="fill:#32bea6;fill-opacity:1" /></svg>
